<svg width="20" height="21" viewBox="0 0 20 21" fill="none" xmlns="http://www.w3.org/2000/svg">
<g clip-path="url(#clip0_1331_10848)">
<path d="M15.4167 20.5H4.58332C2.05316 20.4972 0.00277344 18.4468 0 15.9167V5.08332C0.00277344 2.55316 2.05316 0.502773 4.58332 0.5H15.4166C17.9468 0.502773 19.9972 2.55316 20 5.08332V15.9166C19.9972 18.4468 17.9468 20.4972 15.4167 20.5ZM4.58332 3C3.43273 3 2.5 3.93273 2.5 5.08332V15.9166C2.5 17.0673 3.43273 18 4.58332 18H15.4166C16.5673 18 17.5 17.0673 17.5 15.9167V5.08332C17.5 3.93273 16.5673 3 15.4167 3H4.58332Z" fill="#1F2937"/>
<path d="M8.05636 15.3223C7.5305 15.3227 7.02636 15.1126 6.65636 14.739L4.16718 12.254C3.67886 11.766 3.67862 10.9745 4.16663 10.4862C4.16683 10.486 4.16702 10.4858 4.16718 10.4856C4.6553 9.99766 5.44655 9.99766 5.93468 10.4856L8.05636 12.6064L14.0664 6.59645C14.5545 6.10848 15.3457 6.10848 15.8339 6.59645C16.3222 7.08445 16.3224 7.8759 15.8344 8.36422C15.8342 8.36441 15.834 8.36461 15.8339 8.36477L9.45554 14.7431C9.08515 15.1152 8.58136 15.3237 8.05636 15.3223Z" fill="#1F2937"/>
</g>
<defs>
<clipPath id="clip0_1331_10848">
<rect width="20" height="20" fill="white" transform="translate(0 0.5)"/>
</clipPath>
</defs>
</svg>