<svg width="20" height="20" viewBox="0 0 20 20" fill="none" xmlns="http://www.w3.org/2000/svg">
<path d="M12.5758 13.33C18.0517 13.3025 20 10.4025 20 7.91583C20 6.51833 19.01 5.34917 17.6958 5.06667C17.8092 4.745 17.9075 4.44917 17.9733 4.225C18.2675 3.23083 18.0775 2.18083 17.4517 1.34333C16.8133 0.49 15.8375 0 14.7733 0H5.22583C4.16167 0 3.185 0.49 2.54667 1.34333C1.92083 2.18083 1.73083 3.23167 2.025 4.225C2.09167 4.44917 2.18917 4.745 2.30333 5.0675C0.989167 5.35 0 6.51917 0 7.91667C0 10.4033 1.94917 13.3033 7.42417 13.3308C7.47083 13.5825 7.5 13.8392 7.5 14.1008V16.6667C7.5 18.1883 6.22 18.3267 5.83333 18.3333H5C4.53917 18.3333 4.16667 18.7058 4.16667 19.1667C4.16667 19.6275 4.53917 20 5 20H15C15.4608 20 15.8333 19.6275 15.8333 19.1667C15.8333 18.7058 15.4608 18.3333 15 18.3333H14.1733C13.78 18.3267 12.5 18.1883 12.5 16.6667V14.1C12.5 13.8392 12.5292 13.5817 12.5758 13.33ZM17.0433 6.6575C17.0575 6.6575 17.0692 6.66583 17.0833 6.66583C17.7725 6.66583 18.3333 7.22667 18.3333 7.91583C18.3333 9.61083 16.9925 11.4133 13.3033 11.6408C13.4875 11.3917 13.6983 11.1608 13.9383 10.9567C15.3875 9.725 16.3825 8.07917 17.0433 6.6575ZM1.66667 7.91583C1.66667 7.22667 2.2275 6.66583 2.91667 6.66583C2.93083 6.66583 2.9425 6.65833 2.95583 6.6575C3.6175 8.07917 4.6125 9.725 6.06167 10.9567C6.30167 11.1608 6.5125 11.3908 6.69667 11.6408C3.0075 11.4133 1.66667 9.61083 1.66667 7.91583ZM8.16 8.135C7.94 7.98333 7.8475 7.70333 7.935 7.45L8.3675 6.11167L7.22917 5.27833C6.95667 5.07833 6.8975 4.69583 7.0975 4.42333C7.2125 4.26667 7.39583 4.17333 7.59 4.17333H8.99083L9.41667 2.84583C9.52417 2.52333 9.8725 2.35 10.195 2.4575C10.3783 2.51833 10.5225 2.6625 10.5833 2.84583L11.0083 4.17333H12.4092C12.7467 4.17333 13.0208 4.44667 13.0208 4.785C13.0208 4.98083 12.9275 5.16417 12.77 5.27917L11.6317 6.1125L12.0642 7.45083C12.1675 7.7725 11.9908 8.1175 11.6683 8.22167C11.4817 8.28167 11.2775 8.24833 11.1192 8.1325L10 7.30917L8.88 8.13167C8.66667 8.29083 8.375 8.29167 8.16 8.135Z" fill="#1F2937"/>
</svg>