<svg width="20" height="21" viewBox="0 0 20 21" fill="none" xmlns="http://www.w3.org/2000/svg">
<g clip-path="url(#clip0_1331_10867)">
<path d="M17.5 13.8314L17.5 17.6572C17.4995 17.8453 17.3472 17.9976 17.1592 17.998L2.84082 17.998C2.65277 17.9976 2.50043 17.8453 2.5 17.6572L2.5 13.8314C2.5 13.1411 1.94035 12.5814 1.25 12.5814C0.559648 12.5814 -3.21584e-07 13.1411 -2.91408e-07 13.8314L-1.24176e-07 17.6572C0.00183588 19.2254 1.27266 20.4962 2.84082 20.498L17.1591 20.498C18.7273 20.4962 19.9982 19.2254 20 17.6572L20 13.8314C20 13.1411 19.4404 12.5814 18.75 12.5814C18.0596 12.5814 17.5 13.141 17.5 13.8314Z" fill="#1F2937"/>
<path d="M8.75012 1.74748L8.77262 13.1142L5.8843 10.2258C5.39621 9.73752 4.60469 9.73733 4.11637 10.2254C3.62805 10.7135 3.62785 11.505 4.11594 11.9933L7.34844 15.2258C8.81289 16.6903 11.1873 16.6903 12.6517 15.2259L12.6518 15.2258L15.8843 11.9933C16.3723 11.505 16.3721 10.7135 15.8838 10.2254C15.3955 9.73733 14.604 9.73752 14.1159 10.2258L11.2726 13.07L11.2501 1.74748C11.2487 1.05713 10.688 0.498618 9.99762 0.499985C9.30727 0.501352 8.74875 1.06213 8.75012 1.75249L8.75012 1.74748Z" fill="#1F2937"/>
</g>
<defs>
<clipPath id="clip0_1331_10867">
<rect width="20" height="20" fill="white" transform="translate(0 20.5) rotate(-90)"/>
</clipPath>
</defs>
</svg>