<svg width="20" height="20" viewBox="0 0 20 20" fill="none" xmlns="http://www.w3.org/2000/svg">
<path d="M14.2181 9.52828L11.2498 12.4966C10.6915 13.0549 9.96063 13.3366 9.22813 13.3366C8.53729 13.3366 7.84563 13.0866 7.29646 12.5833L5.82313 11.2324C5.31479 10.7658 5.27979 9.97495 5.74646 9.46578C6.21313 8.95745 7.00396 8.92245 7.51313 9.38911L8.98646 10.7399C9.12813 10.8708 9.34563 10.8649 9.48229 10.7291L12.4506 7.76078C12.939 7.27245 13.7298 7.27245 14.2181 7.76078C14.7065 8.24828 14.7065 9.04078 14.2181 9.52828Z" fill="#1F2937"/>
<path d="M13.8852 1.66833C13.4168 0.6825 12.411 0 11.2493 0H8.74935C7.58685 0 6.58185 0.6825 6.11352 1.66833C3.64852 1.74 1.66602 3.76833 1.66602 6.25V15.4167C1.66602 17.9442 3.72185 20 6.24935 20H13.7493C16.276 20 18.3327 17.9442 18.3327 15.4167V6.25C18.3327 3.76833 16.3502 1.74083 13.8852 1.66833ZM15.8327 15.4167C15.8327 16.565 14.8985 17.5 13.7493 17.5H6.24935C5.10102 17.5 4.16602 16.565 4.16602 15.4167V6.25C4.16602 5.10167 5.10102 4.16667 6.24935 4.16667H7.08268C7.77352 4.16667 8.33268 3.6075 8.33268 2.91667C8.33268 2.68667 8.51935 2.5 8.74935 2.5H11.2493C11.4785 2.5 11.666 2.68667 11.666 2.91667C11.666 3.6075 12.226 4.16667 12.916 4.16667H13.7493C14.8985 4.16667 15.8327 5.10167 15.8327 6.25V15.4167Z" fill="#1F2937"/>
</svg>