<svg width="17" height="12" viewBox="0 0 17 12" fill="none" xmlns="http://www.w3.org/2000/svg">
<path d="M1.35714 0C1.12981 0 0.911797 0.0903058 0.751051 0.251051C0.590306 0.411797 0.5 0.629814 0.5 0.857143C0.5 1.08447 0.590306 1.30249 0.751051 1.46323C0.911797 1.62398 1.12981 1.71429 1.35714 1.71429H15.6429C15.8702 1.71429 16.0882 1.62398 16.2489 1.46323C16.4097 1.30249 16.5 1.08447 16.5 0.857143C16.5 0.629814 16.4097 0.411797 16.2489 0.251051C16.0882 0.0903058 15.8702 0 15.6429 0H1.35714ZM1.35714 3.42857C1.12981 3.42857 0.911797 3.51888 0.751051 3.67962C0.590306 3.84037 0.5 4.05839 0.5 4.28571C0.5 4.51304 0.590306 4.73106 0.751051 4.89181C0.911797 5.05255 1.12981 5.14286 1.35714 5.14286H15.6429C15.8702 5.14286 16.0882 5.05255 16.2489 4.89181C16.4097 4.73106 16.5 4.51304 16.5 4.28571C16.5 4.05839 16.4097 3.84037 16.2489 3.67962C16.0882 3.51888 15.8702 3.42857 15.6429 3.42857H1.35714ZM0.5 7.71429C0.5 7.48696 0.590306 7.26894 0.751051 7.1082C0.911797 6.94745 1.12981 6.85714 1.35714 6.85714H15.6429C15.8702 6.85714 16.0882 6.94745 16.2489 7.1082C16.4097 7.26894 16.5 7.48696 16.5 7.71429C16.5 7.94161 16.4097 8.15963 16.2489 8.32038C16.0882 8.48112 15.8702 8.57143 15.6429 8.57143H1.35714C1.12981 8.57143 0.911797 8.48112 0.751051 8.32038C0.590306 8.15963 0.5 7.94161 0.5 7.71429ZM1.35714 10.2857C1.12981 10.2857 0.911797 10.376 0.751051 10.5368C0.590306 10.6975 0.5 10.9155 0.5 11.1429C0.5 11.3702 0.590306 11.5882 0.751051 11.7489C0.911797 11.9097 1.12981 12 1.35714 12H11.0714C11.2988 12 11.5168 11.9097 11.6775 11.7489C11.8383 11.5882 11.9286 11.3702 11.9286 11.1429C11.9286 10.9155 11.8383 10.6975 11.6775 10.5368C11.5168 10.376 11.2988 10.2857 11.0714 10.2857H1.35714Z" fill="#1F2937"/>
</svg>