<svg width="16" height="17" viewBox="0 0 16 17" fill="none" xmlns="http://www.w3.org/2000/svg">
<g clip-path="url(#clip0_1445_29456)">
<path d="M12 8.5C9.79333 8.5 8 10.2933 8 12.5C8 14.7067 9.79333 16.5 12 16.5C14.2067 16.5 16 14.7067 16 12.5C16 10.2933 14.2067 8.5 12 8.5ZM12.6667 14.5C12.6667 14.8667 12.3667 15.1667 12 15.1667C11.6333 15.1667 11.3333 14.8667 11.3333 14.5V13.1667C11.3333 12.8 11.6333 12.5 12 12.5C12.3667 12.5 12.6667 12.8 12.6667 13.1667V14.5ZM12 11.8333C11.4467 11.8333 11 11.3867 11 10.8333C11 10.28 11.4467 9.83333 12 9.83333C12.5533 9.83333 13 10.28 13 10.8333C13 11.3867 12.5533 11.8333 12 11.8333ZM7.38667 15.1667H3.33333C1.49333 15.1667 0 13.6733 0 11.8333V3.83333C0 1.99333 1.49333 0.5 3.33333 0.5H6.66667V3.83333C6.66667 4.93333 7.56667 5.83333 8.66667 5.83333H12V7.16667C9.06 7.16667 6.66667 9.56 6.66667 12.5C6.66667 13.4733 6.93333 14.38 7.38667 15.1667ZM8 3.83333V0.6C8.30667 0.7 8.58667 0.86 8.82 1.08667L11.42 3.71333C11.64 3.93333 11.7933 4.2 11.8867 4.49333H8.66667C8.3 4.49333 8 4.19333 8 3.82667V3.83333Z" fill="#1F2937"/>
</g>
<defs>
<clipPath id="clip0_1445_29456">
<rect width="16" height="16" fill="white" transform="translate(0 0.5)"/>
</clipPath>
</defs>
</svg>