<svg width="20" height="21" viewBox="0 0 20 21" fill="none" xmlns="http://www.w3.org/2000/svg">
<path d="M3.33336 9.66667H16.6667C21.0634 9.55167 21.06 3.11417 16.6667 3H3.33336C-1.06331 3.115 -1.05997 9.5525 3.33336 9.66667ZM18.3334 6.33333C18.3334 7.2525 17.5859 8 16.6667 8H13.3334V4.66667H16.6667C17.5859 4.66667 18.3334 5.41417 18.3334 6.33333ZM16.6667 11.3333H3.33336C-1.06331 11.4483 -1.05997 17.8858 3.33336 18H16.6667C21.0634 17.885 21.06 11.4475 16.6667 11.3333ZM16.6667 16.3333H8.33336V13H16.6667C18.8575 13.04 18.8559 16.2942 16.6667 16.3333Z" fill="#1F2937"/>
</svg>