<svg width="20" height="20" viewBox="0 0 20 20" fill="none" xmlns="http://www.w3.org/2000/svg">
<path d="M15.7636 13.9993C17.0898 12.227 17.6954 10.0181 17.4584 7.81729C17.2215 5.61647 16.1596 3.5871 14.4866 2.1377C12.8136 0.688302 10.6536 -0.0735162 8.44147 0.00559837C6.22935 0.084713 4.12931 0.998886 2.5641 2.5641C0.998886 4.12931 0.084713 6.22935 0.00559837 8.44147C-0.0735162 10.6536 0.688302 12.8136 2.1377 14.4866C3.5871 16.1596 5.61647 17.2215 7.81729 17.4584C10.0181 17.6954 12.227 17.0898 13.9993 15.7636L18.2357 20L20 18.239L15.7636 13.9993ZM8.78605 15.016C7.55387 15.016 6.34937 14.6506 5.32486 13.9661C4.30034 13.2815 3.50183 12.3085 3.0303 11.1702C2.55877 10.0318 2.43539 8.77913 2.67578 7.57064C2.91616 6.36214 3.50951 5.25207 4.38079 4.38079C5.25207 3.50951 6.36214 2.91616 7.57064 2.67578C8.77913 2.43539 10.0318 2.55877 11.1702 3.0303C12.3085 3.50183 13.2815 4.30034 13.9661 5.32486C14.6506 6.34937 15.016 7.55387 15.016 8.78605C15.0145 10.4379 14.3576 12.0216 13.1896 13.1896C12.0216 14.3576 10.4379 15.0145 8.78605 15.016Z" fill="#1F2937"/>
</svg>