<svg width="20" height="20" viewBox="0 0 24 25" fill="none" xmlns="http://www.w3.org/2000/svg">
<g clip-path="url(#clip0_1445_31708)">
<path d="M9 12.9473C12.309 12.9473 15 10.2563 15 6.94727C15 3.63827 12.309 0.947266 9 0.947266C5.691 0.947266 3 3.63827 3 6.94727C3 10.2563 5.691 12.9473 9 12.9473ZM9 2.94727C11.206 2.94727 13 4.74127 13 6.94727C13 9.15327 11.206 10.9473 9 10.9473C6.794 10.9473 5 9.15327 5 6.94727C5 4.74127 6.794 2.94727 9 2.94727ZM23.959 23.4923L20.167 19.7003C20.691 18.9093 21 17.9643 21 16.9473C21 14.1903 18.757 11.9473 16 11.9473C13.243 11.9473 11 14.1903 11 16.9473C11 19.7043 13.243 21.9473 16 21.9473C17.017 21.9473 17.962 21.6383 18.753 21.1143L22.545 24.9063L23.959 23.4923ZM16 19.9473C14.346 19.9473 13 18.6013 13 16.9473C13 15.2933 14.346 13.9473 16 13.9473C17.654 13.9473 19 15.2933 19 16.9473C19 18.6013 17.654 19.9473 16 19.9473ZM9.294 14.9473C9.105 15.5813 9 16.2523 9 16.9473H5C3.346 16.9473 2 18.2933 2 19.9473V24.9473H0V19.9473C0 17.1903 2.243 14.9473 5 14.9473H9.294Z" fill="#7D8592"/>
</g>
<defs>
<clipPath id="clip0_1445_31708">
<rect width="20" height="20" fill="white" transform="translate(0 0.947266)"/>
</clipPath>
</defs>
</svg>