<svg width="16" height="17" viewBox="0 0 16 17" fill="none" xmlns="http://www.w3.org/2000/svg">
<g clip-path="url(#clip0_1445_29449)">
<path d="M0.781333 13.2459C0.281202 13.7459 0.000151033 14.4241 0 15.1313L0 16.4999H1.36867C2.07585 16.4998 2.75402 16.2187 3.254 15.7186L12.1493 6.82325L9.67667 4.35059L0.781333 13.2459Z" fill="#1F2937"/>
<path d="M15.4318 1.07024C15.2694 0.907729 15.0766 0.778809 14.8644 0.69085C14.6522 0.602891 14.4248 0.557617 14.1951 0.557617C13.9654 0.557617 13.7379 0.602891 13.5257 0.69085C13.3135 0.778809 13.1208 0.907729 12.9584 1.07024L10.6211 3.40824L13.0938 5.88091L15.4318 3.54357C15.5943 3.38123 15.7232 3.18845 15.8111 2.97626C15.8991 2.76406 15.9444 2.53661 15.9444 2.30691C15.9444 2.0772 15.8991 1.84975 15.8111 1.63755C15.7232 1.42536 15.5943 1.23258 15.4318 1.07024Z" fill="#1F2937"/>
</g>
<defs>
<clipPath id="clip0_1445_29449">
<rect width="16" height="16" fill="white" transform="translate(0 0.5)"/>
</clipPath>
</defs>
</svg>