<svg width="20" height="22" viewBox="0 0 20 22" fill="none" xmlns="http://www.w3.org/2000/svg">
<path d="M2.5001 9.89413C3.1094 5.75347 6.95987 2.89075 11.1004 3.50007C12.5131 3.70794 13.8382 4.31073 14.9233 5.23899L13.9465 6.21579C13.6191 6.54327 13.6192 7.07417 13.9467 7.40157C14.1039 7.5587 14.317 7.64701 14.5393 7.64705H18.3844C18.8474 7.64705 19.2228 7.27167 19.2228 6.8086V2.96338C19.2227 2.50032 18.8472 2.12501 18.3842 2.12509C18.1619 2.12513 17.9488 2.21344 17.7916 2.37058L16.7016 3.46057C12.545 -0.244728 6.17179 0.121183 2.46662 4.27788C1.15398 5.75044 0.302149 7.57576 0.0166605 9.5277C-0.0958998 10.2197 0.373796 10.8719 1.06574 10.9845C1.12808 10.9947 1.19104 11.0001 1.2542 11.0009C1.88727 10.9941 2.41867 10.522 2.5001 9.89413Z" fill="#1F2937"/>
<path d="M18.7459 11C18.1128 11.0068 17.5814 11.4789 17.5 12.1068C16.8907 16.2474 13.0402 19.1101 8.89968 18.5009C7.48702 18.293 6.16184 17.6902 5.0768 16.7619L6.05357 15.7851C6.38095 15.4577 6.38087 14.9268 6.05337 14.5994C5.8962 14.4422 5.68303 14.3539 5.46078 14.3539H1.61577C1.15272 14.3539 0.777344 14.7293 0.777344 15.1923V19.0376C0.777462 19.5006 1.15291 19.8759 1.61597 19.8758C1.83822 19.8758 2.05139 19.7875 2.20856 19.6304L3.29851 18.5404C7.45409 22.2461 13.8268 21.8813 17.5324 17.7255C18.8458 16.2527 19.698 14.4267 19.9834 12.4741C20.0964 11.7821 19.6272 11.1296 18.9353 11.0165C18.8727 11.0063 18.8094 11.0007 18.7459 11Z" fill="#1F2937"/>
</svg>