<svg width="16" height="17" viewBox="0 0 16 17" fill="none" xmlns="http://www.w3.org/2000/svg">
<g clip-path="url(#clip0_1445_29462)">
<path d="M11.332 3.16667V1.83333C11.332 1.47971 11.1916 1.14057 10.9415 0.890524C10.6915 0.640476 10.3523 0.5 9.9987 0.5H5.9987C5.64508 0.5 5.30594 0.640476 5.05589 0.890524C4.80584 1.14057 4.66536 1.47971 4.66536 1.83333V3.16667H1.33203V4.5H2.66536V14.5C2.66536 15.0304 2.87608 15.5391 3.25115 15.9142C3.62622 16.2893 4.13493 16.5 4.66536 16.5H11.332C11.8625 16.5 12.3712 16.2893 12.7462 15.9142C13.1213 15.5391 13.332 15.0304 13.332 14.5V4.5H14.6654V3.16667H11.332ZM7.33203 11.8333H5.9987V7.83333H7.33203V11.8333ZM9.9987 11.8333H8.66536V7.83333H9.9987V11.8333ZM9.9987 3.16667H5.9987V1.83333H9.9987V3.16667Z" fill="#1F2937"/>
</g>
<defs>
<clipPath id="clip0_1445_29462">
<rect width="16" height="16" fill="white" transform="translate(0 0.5)"/>
</clipPath>
</defs>
</svg>