<svg width="29" height="30" viewBox="0 0 29 30" fill="none" xmlns="http://www.w3.org/2000/svg">
<path d="M16.122 12.9833C15.8434 12.7045 15.5126 12.4833 15.1485 12.3325C14.7844 12.1816 14.3941 12.1039 14 12.1039C13.6059 12.1039 13.2156 12.1816 12.8515 12.3325C12.4874 12.4833 12.1566 12.7045 11.878 12.9833L5.038 19.8233C11.878 17.9473 8.58004 20.59 9.5 21.4473C10.42 22.3046 11.5 21.4473 10 24.4473H24C24.9797 24.4471 25.9375 24.1573 26.753 23.6143L16.122 12.9833Z" fill="#7D8592"/>
<path d="M23 8.44727C24.1046 8.44727 25 7.55184 25 6.44727C25 5.3427 24.1046 4.44727 23 4.44727C21.8954 4.44727 21 5.3427 21 6.44727C21 7.55184 21.8954 8.44727 23 8.44727Z" fill="#7D8592"/>
<path d="M24 0.447266H10C8.67441 0.448853 7.40356 0.976148 6.46622 1.91349C5.52888 2.85082 5.00159 4.12167 5 5.44727V17.0333L10.464 11.5693C10.9283 11.1048 11.4796 10.7364 12.0863 10.4851C12.693 10.2337 13.3433 10.1043 14 10.1043C14.6567 10.1043 15.307 10.2337 15.9137 10.4851C16.5204 10.7364 17.0717 11.1048 17.536 11.5693L28.167 22.2003C28.71 21.3848 28.9998 20.427 29 19.4473V5.44727C28.9984 4.12167 28.4711 2.85082 27.5338 1.91349C26.5964 0.976148 25.3256 0.448853 24 0.447266ZM23 10.4473C22.2089 10.4473 21.4355 10.2127 20.7777 9.77314C20.1199 9.33362 19.6072 8.7089 19.3045 7.978C19.0017 7.2471 18.9225 6.44283 19.0769 5.6669C19.2312 4.89098 19.6122 4.17825 20.1716 3.61884C20.731 3.05943 21.4437 2.67847 22.2196 2.52412C22.9956 2.36978 23.7998 2.449 24.5307 2.75175C25.2616 3.0545 25.8864 3.56719 26.3259 4.22499C26.7654 4.88278 27 5.65614 27 6.44727C27 7.50813 26.5786 8.52555 25.8284 9.27569C25.0783 10.0258 24.0609 10.4473 23 10.4473Z" fill="#7D8592"/>
<path d="M8 14.4473C9.41432 14.4473 10.76 14.8734 11.8877 15.626L12.0635 15.4512L12.1592 15.3623C12.6167 14.9691 13.2455 14.847 13.8154 15.0332L13.9365 15.0771L13.9375 15.0781C14.5828 15.3445 14.9999 15.9736 15 16.667V19.7275C14.9999 20.6776 14.2303 21.4471 13.2803 21.4473H12.625C12.88 21.4526 13.1389 21.5066 13.3877 21.6162H13.3867C14.3985 22.0587 14.8569 23.2374 14.416 24.2471C13.3019 26.7984 10.7836 28.4473 8 28.4473C6.58474 28.4473 5.23888 28.0207 4.11133 27.2676L3.93652 27.4434C3.4431 27.9368 2.7039 28.0807 2.06348 27.8174L2.0625 27.8164C1.41715 27.55 1.00011 26.921 1 26.2275V23.167C1.00015 22.2169 1.76966 21.4474 2.71973 21.4473H3.37695C3.12175 21.4422 2.86302 21.3884 2.61426 21.2793V21.2783C1.6036 20.8358 1.14155 19.6576 1.58398 18.6465C2.6991 16.0958 5.21738 14.4473 8 14.4473ZM8 18.4473C6.88128 18.4473 5.86248 19.068 5.3457 20.0469L5.24902 20.248C4.92047 20.9984 4.18696 21.4473 3.41602 21.4473H5.78027C6.47299 21.4474 7.10133 21.8636 7.36816 22.5078C7.62019 23.1154 7.5019 23.806 7.07617 24.2949C7.37074 24.3921 7.68095 24.4473 8 24.4473C9.1925 24.4473 10.2731 23.7403 10.751 22.6465L10.8418 22.4629C11.2018 21.8248 11.8754 21.4482 12.5811 21.4473H10.2197C9.52731 21.4472 8.89887 21.0314 8.63184 20.3877L8.58594 20.2656C8.39555 19.6891 8.52547 19.0551 8.92285 18.5986C8.62863 18.5017 8.31863 18.4473 8 18.4473Z" fill="#7D8592" stroke="white" stroke-width="2"/>
</svg>
