<svg width="29" height="28" viewBox="0 0 29 28" fill="none" xmlns="http://www.w3.org/2000/svg">
<path d="M5 8.88541V17.8944C11.5 14.3945 13.869 18.3945 10 22.8944H24C26.76 22.8911 28.9967 20.6545 29 17.8944V8.77441L5 8.88541Z" fill="#7D8592"/>
<path d="M24 2.8945H17.472C17.3173 2.89553 17.1645 2.86131 17.025 2.79452L13.869 1.21052C13.4524 1.00305 12.9934 0.894906 12.528 0.894531H9.99997C7.23997 0.897813 5.00333 3.13445 5 5.8945V6.88548L28.863 6.77448C28.3419 4.50737 26.3262 2.89914 24 2.8945Z" fill="#7D8592"/>
<path d="M8 12.8945C9.41432 12.8945 10.76 13.3206 11.8877 14.0732L12.0635 13.8984L12.1592 13.8096C12.6167 13.4163 13.2455 13.2942 13.8154 13.4805L13.9365 13.5244L13.9375 13.5254C14.5828 13.7918 14.9999 14.4208 15 15.1143V18.1748C14.9999 19.1249 14.2303 19.8944 13.2803 19.8945H12.625C12.88 19.8999 13.1389 19.9538 13.3877 20.0635H13.3867C14.3985 20.506 14.8569 21.6846 14.416 22.6943C13.3019 25.2457 10.7836 26.8945 8 26.8945C6.58474 26.8945 5.23888 26.4679 4.11133 25.7148L3.93652 25.8906C3.4431 26.384 2.7039 26.5279 2.06348 26.2646L2.0625 26.2637C1.41715 25.9973 1.00011 25.3682 1 24.6748V21.6143C1.00015 20.6642 1.76966 19.8947 2.71973 19.8945H3.37695C3.12175 19.8895 2.86302 19.8357 2.61426 19.7266V19.7256C1.6036 19.283 1.14155 18.1048 1.58398 17.0938C2.6991 14.5431 5.21738 12.8945 8 12.8945ZM8 16.8945C6.88128 16.8945 5.86248 17.5152 5.3457 18.4941L5.24902 18.6953C4.92047 19.4457 4.18696 19.8946 3.41602 19.8945H5.78027C6.47299 19.8946 7.10133 20.3109 7.36816 20.9551C7.62019 21.5626 7.5019 22.2532 7.07617 22.7422C7.37074 22.8394 7.68095 22.8945 8 22.8945C9.1925 22.8945 10.2731 22.1875 10.751 21.0938L10.8418 20.9102C11.2018 20.2721 11.8754 19.8954 12.5811 19.8945H10.2197C9.52731 19.8944 8.89887 19.4787 8.63184 18.835L8.58594 18.7129C8.39555 18.1363 8.52547 17.5024 8.92285 17.0459C8.62863 16.949 8.31863 16.8945 8 16.8945Z" fill="#7D8592" stroke="white" stroke-width="2"/>
</svg>
